<?xml version="1.0" standalone="no"?>
<!DOCTYPE svg PUBLIC "-//W3C//DTD SVG 20010904//EN"
 "http://www.w3.org/TR/2001/REC-SVG-20010904/DTD/svg10.dtd">
<svg version="1.0" xmlns="http://www.w3.org/2000/svg"
 width="446.000000pt" height="138.000000pt" viewBox="0 0 446.000000 138.000000"
 preserveAspectRatio="xMidYMid meet">
<metadata>

</metadata>
<g transform="translate(0.000000,138.000000) scale(0.100000,-0.100000)"
fill="rgb(222, 184, 135)" stroke="white">
<path d="M0 690 l0 -690 2230 0 2230 0 0 690 0 690 -2230 0 -2230 0 0 -690z
m637 378 c22 -21 31 -48 15 -48 -4 0 -13 9 -20 20 -7 11 -20 20 -30 20 -29 0
-86 -45 -109 -86 l-21 -39 98 3 c75 3 105 0 129 -12 76 -40 79 -110 7 -179
l-43 -42 61 -30 c71 -36 106 -80 106 -136 0 -77 -102 -154 -245 -184 -39 -8
-87 -15 -109 -15 -35 0 -38 -2 -32 -24 9 -37 -13 -43 -27 -7 -6 17 -18 31 -26
31 -30 0 -97 41 -114 69 -21 35 -22 80 -3 107 20 26 43 6 27 -24 -19 -35 -12
-63 23 -98 45 -45 71 -46 62 -2 -17 84 -18 295 -3 383 9 49 14 92 11 94 -10
11 -76 -34 -90 -61 -17 -33 -11 -60 18 -88 11 -10 17 -23 14 -29 -11 -16 -44
9 -62 47 -30 64 6 121 99 157 36 14 48 25 66 63 55 115 141 163 198 110z
m1509 -93 c23 -14 51 -37 63 -52 20 -27 20 -27 21 -5 0 36 18 25 26 -15 4 -21
34 -83 69 -138 34 -55 79 -130 100 -167 43 -74 54 -73 55 2 0 25 7 79 14 120
30 166 93 266 172 277 49 6 84 -10 84 -39 0 -21 0 -21 -21 -3 -18 18 -23 18
-62 5 -83 -29 -136 -139 -156 -323 -13 -117 -6 -183 25 -220 24 -29 41 -88 29
-106 -13 -23 -37 -9 -55 32 -11 23 -20 47 -20 54 0 13 -136 265 -187 347 -28
44 -31 46 -36 24 -4 -12 -7 -39 -7 -58 -1 -62 -39 -213 -70 -277 -17 -34 -47
-76 -67 -93 -33 -29 -41 -32 -86 -27 -35 3 -56 11 -75 31 -29 29 -15 35 23 10
57 -37 123 6 172 113 29 64 68 216 77 303 7 64 7 66 -30 108 -33 39 -98 82
-124 82 -23 0 -32 -53 -21 -126 6 -39 14 -79 17 -89 5 -13 3 -16 -7 -13 -32
11 -56 200 -31 246 17 29 54 29 108 -3z m1306 -22 c4 -2 -8 -34 -27 -71 -19
-37 -38 -76 -41 -87 -16 -44 -16 25 0 77 8 29 13 55 10 58 -3 3 -47 5 -97 5
-81 0 -99 -3 -152 -29 -33 -17 -85 -55 -116 -85 -88 -89 -121 -178 -105 -286
9 -58 61 -119 126 -148 92 -42 261 -19 364 49 25 17 42 22 48 16 7 -7 -5 -19
-35 -36 -115 -68 -272 -93 -381 -62 -153 45 -217 206 -144 364 43 93 163 189
283 228 36 12 246 17 267 7z m-2087 -159 c-62 -83 -185 -308 -185 -340 0 -10
12 -5 39 17 34 27 38 35 31 54 -11 30 -2 38 24 21 19 -12 25 -11 56 11 25 18
28 23 13 18 -13 -3 -23 -2 -23 3 0 9 66 32 94 32 38 0 9 -36 -51 -65 -58 -27
-63 -32 -63 -61 0 -73 35 -115 68 -82 8 8 12 8 12 1 0 -19 -29 -35 -53 -29
-23 5 -37 25 -57 80 l-11 29 -40 -39 c-23 -21 -45 -49 -50 -62 -15 -38 -32
-15 -25 32 l7 41 -37 -37 c-21 -23 -46 -38 -60 -38 -31 0 -54 36 -54 85 l0 40
-21 -35 c-47 -79 -107 -115 -123 -74 -42 109 140 338 239 300 20 -7 19 -40 -1
-57 -13 -11 -14 -9 -9 14 6 24 4 27 -19 27 -74 0 -223 -237 -178 -282 12 -12
79 84 101 144 18 48 26 61 39 66 9 3 12 -23 12 -90 0 -99 9 -124 40 -108 26
14 97 112 124 172 14 29 45 90 69 135 32 57 40 80 29 76 -10 -4 -15 -4 -12 -1
3 2 34 31 70 64 89 80 91 52 5 -62z m2695 101 c0 -8 -21 -41 -47 -73 -25 -31
-62 -82 -81 -111 -37 -57 -115 -218 -127 -261 -7 -22 -3 -21 34 15 35 33 41
44 35 67 -6 31 2 35 31 14 18 -12 24 -11 50 11 27 23 28 24 6 18 -14 -4 -21
-3 -18 3 9 13 93 36 106 28 21 -13 -4 -39 -66 -67 l-64 -29 7 -37 c13 -71 22
-86 50 -80 15 3 23 0 21 -7 -2 -6 -17 -11 -33 -11 -25 0 -32 7 -56 55 l-27 55
-45 -49 c-25 -27 -46 -55 -46 -63 0 -8 -5 -11 -11 -7 -7 4 -9 23 -5 50 l6 44
-36 -40 c-26 -29 -44 -40 -65 -40 -32 0 -44 16 -55 74 l-7 39 -15 -29 c-39
-78 -103 -109 -122 -59 -23 62 53 208 138 265 72 48 142 35 112 -21 -15 -27
-23 -24 -16 6 6 22 3 25 -21 25 -35 0 -119 -85 -156 -160 -28 -57 -37 -125
-14 -118 19 7 65 78 92 143 38 94 53 85 51 -29 -1 -67 3 -99 12 -108 25 -24
102 75 186 238 42 81 76 149 76 151 0 2 -6 1 -12 -3 -7 -4 16 20 51 54 65 64
81 73 81 47z m-2450 -244 c5 -11 10 -24 10 -30 0 -22 -41 -51 -70 -51 -27 0
-33 -6 -51 -47 -26 -59 -35 -118 -20 -127 16 -10 84 29 120 69 18 21 35 34 38
31 9 -9 -75 -94 -109 -112 -94 -49 -119 22 -54 149 15 27 25 51 23 54 -2 2 12
21 32 43 39 44 65 50 81 21z m2628 -14 c5 -39 -23 -67 -64 -67 -30 0 -34 -4
-52 -52 -32 -87 -34 -98 -22 -113 17 -21 56 -2 112 52 53 52 74 54 31 3 -64
-76 -143 -111 -173 -75 -17 20 -7 75 25 140 14 29 25 55 25 59 0 4 17 25 37
47 44 47 76 50 81 6z"/>
<path d="M483 909 c-28 -8 -35 -17 -47 -59 -38 -127 -45 -347 -16 -452 11 -37
12 -38 57 -38 60 0 158 26 209 56 115 66 126 166 26 234 -38 27 -74 29 -199
15 -45 -5 -63 -4 -63 4 0 17 45 31 101 31 58 0 90 18 130 74 28 38 37 88 21
112 -22 33 -141 45 -219 23z"/>
</g>
</svg>
